<svg xmlns="http://www.w3.org/2000/svg" viewBox="140 30 400 400" fill="none" role="img" aria-label="LANtern">
  <title>LANtern app icon</title>
  <desc>A rounded-square app icon showing a lantern whose light source is a glowing network node graph</desc>

  <rect x="160" y="40" width="360" height="360" rx="80" fill="#101B2E"/>
  <rect x="160" y="40" width="360" height="360" rx="80" stroke="#1E3A5F" stroke-width="4"/>

  <circle cx="340" cy="235" r="118" fill="#F5A623" opacity="0.10"/>
  <circle cx="340" cy="235" r="86" fill="#F5A623" opacity="0.12"/>

  <path d="M310 96 Q340 62 370 96" stroke="#E8EDF4" stroke-width="10" stroke-linecap="round"/>
  <rect x="296" y="100" width="88" height="18" rx="9" fill="#E8EDF4"/>

  <path
    d="M304 118 L296 158 L296 306 L304 340 L376 340 L384 306 L384 158 L376 118 Z"
    fill="#16263F"
    stroke="#E8EDF4"
    stroke-width="8"
    stroke-linejoin="round"
  />
  <line x1="296" y1="160" x2="384" y2="160" stroke="#E8EDF4" stroke-width="6"/>
  <line x1="296" y1="302" x2="384" y2="302" stroke="#E8EDF4" stroke-width="6"/>

  <g stroke="#F5A623" stroke-width="4" opacity="0.9">
    <line x1="340" y1="231" x2="316" y2="196"/>
    <line x1="340" y1="231" x2="366" y2="200"/>
    <line x1="340" y1="231" x2="312" y2="262"/>
    <line x1="340" y1="231" x2="364" y2="268"/>
  </g>

  <circle cx="340" cy="231" r="14" fill="#FFC85C"/>
  <circle cx="316" cy="196" r="8" fill="#F5A623"/>
  <circle cx="366" cy="200" r="8" fill="#F5A623"/>
  <circle cx="312" cy="262" r="8" fill="#F5A623"/>
  <circle cx="364" cy="268" r="8" fill="#F5A623"/>

  <rect x="322" y="340" width="36" height="14" rx="4" fill="#E8EDF4"/>

  <path
    d="M244 190 Q224 235 244 280"
    stroke="#FFC85C"
    stroke-width="7"
    stroke-linecap="round"
    opacity="0.55"
  />
  <path
    d="M436 190 Q456 235 436 280"
    stroke="#FFC85C"
    stroke-width="7"
    stroke-linecap="round"
    opacity="0.55"
  />
</svg>
